<?xml version="1.0" encoding="utf-8"?>
<!-- Generator: Adobe Illustrator 18.0.0, SVG Export Plug-In . SVG Version: 6.00 Build 0)  -->
<!DOCTYPE svg PUBLIC "-//W3C//DTD SVG 1.1//EN" "http://www.w3.org/Graphics/SVG/1.1/DTD/svg11.dtd">
<svg version="1.1" id="target" xmlns="http://www.w3.org/2000/svg" xmlns:xlink="http://www.w3.org/1999/xlink" x="0px" y="0px"
	 viewBox="0 0 60 60" enable-background="new 0 0 60 60" xml:space="preserve">
<path fill="#568604" d="M55.7,45.5h-4.7c-0.2,0-0.3,0.1-0.5,0.1l-2.2-2.3c4.2-4.6,6.8-10.7,6.8-17.5C55,11.6,43.4,0,29.2,0
	S3.3,11.6,3.3,25.9c0,11.4,7.4,21.1,17.6,24.5l-3.1,8.2c-0.2,0.5,0.1,1.1,0.6,1.3c0.1,0,0.2,0.1,0.4,0.1c0.4,0,0.8-0.3,1-0.7
	l3.1-8.3c0,0,0-0.1,0-0.1c2,0.5,4.1,0.8,6.3,0.8s4.3-0.3,6.3-0.8c0,0,0,0.1,0,0.1l3.1,8.3c0.2,0.4,0.6,0.7,1,0.7
	c0.1,0,0.2,0,0.4-0.1c0.5-0.2,0.8-0.8,0.6-1.3l-3.1-8.2c3.5-1.2,6.7-3.1,9.4-5.6l3.1,3.2l-0.1,4c0,0.6,0.4,1,1,1.1c0,0,0,0,0,0
	c0.6,0,1-0.4,1-1l0.1-4.5c0,0,0,0,0,0h3.7c0.6,0,1-0.5,1-1S56.2,45.5,55.7,45.5z"/>
<path fill="#D6F7CB" d="M29.2,49.7C16.1,49.7,5.4,39,5.4,25.9S16.1,2.1,29.2,2.1S53,12.7,53,25.9c0,6.1-2.3,11.8-6.2,16l-2.9-3
	c3.1-3.5,4.9-8,4.9-13C48.8,15,40,6.2,29.2,6.2S9.5,15,9.5,25.9s8.8,19.7,19.7,19.7c5.1,0,9.8-2,13.3-5.2l2.9,3
	C41.1,47.2,35.4,49.7,29.2,49.7z"/>
<path fill="#D6F7CB" d="M39.6,34.4c1.9-2.3,3-5.3,3-8.5c0-7.4-6-13.4-13.4-13.4s-13.4,6-13.4,13.4s6,13.4,13.4,13.4
	c3.4,0,6.6-1.3,9-3.5l2.9,3c-3.1,2.9-7.3,4.6-11.8,4.6c-9.7,0-17.6-7.9-17.6-17.6S19.5,8.3,29.2,8.3s17.6,7.9,17.6,17.6
	c0,4.4-1.6,8.4-4.3,11.5L39.6,34.4z"/>
<path fill="#D6F7CB" d="M35.2,29.8c0.8-1.1,1.2-2.5,1.2-4c0-4-3.2-7.2-7.2-7.2s-7.2,3.2-7.2,7.2s3.2,7.2,7.2,7.2
	c1.8,0,3.4-0.6,4.7-1.7l2.9,3c-2,1.8-4.6,2.9-7.5,2.9c-6.3,0-11.4-5.1-11.4-11.4s5.1-11.4,11.4-11.4s11.4,5.1,11.4,11.4
	c0,2.6-0.9,5.1-2.4,7L35.2,29.8z"/>
<path fill="#FFFFFF" d="M30.6,25c-0.4-0.4-1.1-0.4-1.5,0c-0.4,0.4-0.4,1.1,0,1.5l3.3,3.4c-0.9,0.7-2,1.1-3.2,1.1
	c-2.9,0-5.2-2.3-5.2-5.2s2.3-5.2,5.2-5.2s5.2,2.3,5.2,5.2c0,0.9-0.2,1.7-0.6,2.4L30.6,25z"/>
</svg>
