<?xml version="1.0" encoding="iso-8859-1"?>
<!-- Generator: Adobe Illustrator 18.0.0, SVG Export Plug-In . SVG Version: 6.00 Build 0)  -->
<!DOCTYPE svg PUBLIC "-//W3C//DTD SVG 1.1//EN" "http://www.w3.org/Graphics/SVG/1.1/DTD/svg11.dtd">
<svg version="1.1" xmlns="http://www.w3.org/2000/svg" xmlns:xlink="http://www.w3.org/1999/xlink" x="0px" y="0px"
	 viewBox="0 0 107 82" style="enable-background:new 0 0 107 82;" xml:space="preserve">
<g id="&#x421;&#x43B;&#x43E;&#x439;_1">
</g>
<g id="&#x444;&#x43E;&#x43D;&#x44B;">
</g>
<g id="&#x421;&#x43B;&#x43E;&#x439;_3" style="display:none;opacity:0.3;">
</g>
<g id="&#x421;&#x43B;&#x43E;&#x439;_2">
	<g>
		<circle style="fill:none;stroke:#FF5274;stroke-width:0.5;stroke-miterlimit:10;" cx="29.054" cy="28.948" r="3.043"/>
		<path style="fill:none;stroke:#FF5274;stroke-width:0.5;stroke-miterlimit:10;" d="M13.5,54.771h80V20.672h-80V54.771z
			 M56.438,53.459H29.893L43.166,40.2L56.438,53.459z M48.254,43.439l12.289-12.289l22.295,22.295h-24.63l0,0L48.254,43.439z
			 M14.811,21.984h77.377v31.475h-7.751l0.131-0.131L60.556,29.302l-13.207,13.22l-4.184-4.144L28.189,53.328l0.131,0.131H14.811
			V21.984z"/>
		<polygon style="fill:none;stroke:#FF5274;stroke-width:0.5;stroke-miterlimit:10;" points="9.67,36.449 8.752,35.531 
			5.015,39.256 8.766,43.007 9.697,42.089 6.864,39.256 		"/>
		<polygon style="fill:none;stroke:#FF5274;stroke-width:0.5;stroke-miterlimit:10;" points="96.621,36.449 99.454,39.282 
			96.648,42.089 97.579,43.007 101.303,39.282 97.552,35.531 		"/>
		<path style="fill:none;stroke:#FF5274;stroke-width:0.5;stroke-miterlimit:10;" d="M0.385,1v80h106.23V1H0.385z M105.303,2.311
			v8.852H1.697V2.311H105.303z M1.697,79.689V12.475h103.607v67.213H1.697z"/>
		<circle style="fill:none;stroke:#FF5274;stroke-width:0.5;stroke-miterlimit:10;" cx="6.575" cy="6.784" r="1.639"/>
		<circle style="fill:none;stroke:#FF5274;stroke-width:0.5;stroke-miterlimit:10;" cx="12.477" cy="6.784" r="1.639"/>
		<circle style="fill:none;stroke:#FF5274;stroke-width:0.5;stroke-miterlimit:10;" cx="18.379" cy="6.784" r="1.639"/>
		<path style="fill:none;stroke:#FF5274;stroke-width:0.5;stroke-miterlimit:10;" d="M13.5,73.131h22.951v-13.77H13.5V73.131z
			 M25.71,71.82h-6.951l3.475-3.475L25.71,71.82z M24.529,68.777l3.37-3.37l6.413,6.413h-6.741L24.529,68.777z M14.811,60.672
			h20.328v10.111L27.9,63.544l-4.302,4.302l-1.311-1.311L16.91,71.82h-2.098V60.672z"/>
		<path style="fill:none;stroke:#FF5274;stroke-width:0.5;stroke-miterlimit:10;" d="M70.549,73.131H93.5v-13.77H70.549V73.131z
			 M82.759,71.82h-6.964l3.475-3.475L82.759,71.82z M81.566,68.777l3.41-3.37l6.413,6.413h-6.859l0,0L81.566,68.777z M71.861,60.672
			h20.328v10.111l-7.213-7.239l-4.328,4.302l-1.311-1.311l-5.377,5.285h-2.098V60.672z"/>
		<path style="fill:none;stroke:#FF5274;stroke-width:0.5;stroke-miterlimit:10;" d="M41.697,73.131h22.951v-13.77H41.697V73.131z
			 M53.907,71.82h-6.964l3.475-3.475L53.907,71.82z M52.726,68.777l3.397-3.37l6.413,6.413h-6.767L52.726,68.777z M43.008,60.672
			h20.328v10.111l-7.213-7.239l-4.328,4.302l-1.311-1.311l-5.377,5.285h-2.098V60.672z"/>
	</g>
</g>
<g id="&#x421;&#x43B;&#x43E;&#x439;_5">
</g>
<g id="&#x421;&#x43B;&#x43E;&#x439;_6">
</g>
<g id="&#x421;&#x43B;&#x43E;&#x439;_8">
</g>
<g id="&#x432;&#x43E;&#x437;&#x43C;&#x43E;&#x436;&#x43D;&#x44B;&#x435;_&#x44D;&#x43B;&#x435;&#x43C;&#x435;&#x43D;&#x442;&#x44B;" style="display:none;">
</g>
</svg>
