<?xml version="1.0" encoding="iso-8859-1"?>
<!-- Generator: Adobe Illustrator 18.0.0, SVG Export Plug-In . SVG Version: 6.00 Build 0)  -->
<!DOCTYPE svg PUBLIC "-//W3C//DTD SVG 1.1//EN" "http://www.w3.org/Graphics/SVG/1.1/DTD/svg11.dtd">
<svg version="1.1" xmlns="http://www.w3.org/2000/svg" xmlns:xlink="http://www.w3.org/1999/xlink" x="0px" y="0px"
	 viewBox="0 0 107 82" style="enable-background:new 0 0 107 82;" xml:space="preserve">
<g id="&#x421;&#x43B;&#x43E;&#x439;_1">
</g>
<g id="&#x444;&#x43E;&#x43D;&#x44B;">
</g>
<g id="&#x421;&#x43B;&#x43E;&#x439;_3" style="display:none;opacity:0.3;">
</g>
<g id="&#x421;&#x43B;&#x43E;&#x439;_2">
	<g>
		<path style="fill:none;stroke:#FF5274;stroke-width:0.5;stroke-miterlimit:10;" d="M0.385,1v80h106.23V1H0.385z M105.303,79.689
			H1.697V12.475h103.607V79.689z M105.303,11.164H1.697V2.311h103.607V11.164z"/>
		<circle style="fill:none;stroke:#FF5274;stroke-width:0.5;stroke-miterlimit:10;" cx="6.575" cy="6.836" r="1.639"/>
		<circle style="fill:none;stroke:#FF5274;stroke-width:0.5;stroke-miterlimit:10;" cx="12.477" cy="6.836" r="1.639"/>
		<circle style="fill:none;stroke:#FF5274;stroke-width:0.5;stroke-miterlimit:10;" cx="18.379" cy="6.836" r="1.639"/>
		
			<rect x="72.516" y="31.164" style="fill:none;stroke:#FF5274;stroke-width:0.5;stroke-miterlimit:10;" width="27.541" height="1.311"/>
		
			<rect x="72.516" y="35.098" style="fill:none;stroke:#FF5274;stroke-width:0.5;stroke-miterlimit:10;" width="19.672" height="1.311"/>
		
			<rect x="72.516" y="40.344" style="fill:none;stroke:#FF5274;stroke-width:0.5;stroke-miterlimit:10;" width="24.918" height="1.311"/>
		
			<rect x="72.516" y="44.279" style="fill:none;stroke:#FF5274;stroke-width:0.5;stroke-miterlimit:10;" width="14.426" height="1.311"/>
		<path style="fill:none;stroke:#FF5274;stroke-width:0.5;stroke-miterlimit:10;" d="M67.27,29.852H13.5v34.098h53.77V29.852z
			 M65.959,62.639H14.811V31.164h51.148V62.639z"/>
		<path style="fill:none;stroke:#FF5274;stroke-width:0.5;stroke-miterlimit:10;" d="M31.861,38.246v17.43l15.082-8.721
			L31.861,38.246z M33.172,40.515l11.148,6.439l-11.148,6.439V40.515z"/>
	</g>
</g>
<g id="&#x421;&#x43B;&#x43E;&#x439;_5">
</g>
<g id="&#x421;&#x43B;&#x43E;&#x439;_6">
</g>
<g id="&#x421;&#x43B;&#x43E;&#x439;_8">
</g>
<g id="&#x432;&#x43E;&#x437;&#x43C;&#x43E;&#x436;&#x43D;&#x44B;&#x435;_&#x44D;&#x43B;&#x435;&#x43C;&#x435;&#x43D;&#x442;&#x44B;" style="display:none;">
</g>
</svg>
