<?xml version="1.0" encoding="iso-8859-1"?>
<!-- Generator: Adobe Illustrator 18.0.0, SVG Export Plug-In . SVG Version: 6.00 Build 0)  -->
<!DOCTYPE svg PUBLIC "-//W3C//DTD SVG 1.1//EN" "http://www.w3.org/Graphics/SVG/1.1/DTD/svg11.dtd">
<svg version="1.1" xmlns="http://www.w3.org/2000/svg" xmlns:xlink="http://www.w3.org/1999/xlink" x="0px" y="0px"
	 viewBox="0 0 107 82" style="enable-background:new 0 0 107 82;" xml:space="preserve">
<g id="&#x421;&#x43B;&#x43E;&#x439;_1">
</g>
<g id="&#x444;&#x43E;&#x43D;&#x44B;">
</g>
<g id="&#x421;&#x43B;&#x43E;&#x439;_3" style="display:none;opacity:0.3;">
</g>
<g id="&#x421;&#x43B;&#x43E;&#x439;_2">
	<g>
		<g>
			<path style="fill:none;stroke:#FF5274;stroke-width:0.5;stroke-miterlimit:10;" d="M0.855,2v80h106.23V2H0.855z M105.773,3.311
				v8.525H2.167V3.311H105.773z M2.167,13.148h24.262v67.541H2.167V13.148z M27.74,80.689V13.148h78.033v67.541H27.74z"/>
			<circle style="fill:none;stroke:#FF5274;stroke-width:0.5;stroke-miterlimit:10;" cx="7.045" cy="7.784" r="1.639"/>
			<circle style="fill:none;stroke:#FF5274;stroke-width:0.5;stroke-miterlimit:10;" cx="12.947" cy="7.784" r="1.639"/>
			<circle style="fill:none;stroke:#FF5274;stroke-width:0.5;stroke-miterlimit:10;" cx="18.849" cy="7.784" r="1.639"/>
			
				<rect x="6.429" y="36.754" style="fill:none;stroke:#FF5274;stroke-width:0.5;stroke-miterlimit:10;" width="11.803" height="1.311"/>
			
				<rect x="6.429" y="42.656" style="fill:none;stroke:#FF5274;stroke-width:0.5;stroke-miterlimit:10;" width="16.393" height="1.311"/>
			
				<rect x="6.429" y="48.557" style="fill:none;stroke:#FF5274;stroke-width:0.5;stroke-miterlimit:10;" width="13.115" height="1.311"/>
			
				<rect x="6.429" y="54.459" style="fill:none;stroke:#FF5274;stroke-width:0.5;stroke-miterlimit:10;" width="9.836" height="1.311"/>
			
				<rect x="6.429" y="60.361" style="fill:none;stroke:#FF5274;stroke-width:0.5;stroke-miterlimit:10;" width="13.115" height="1.311"/>
			<path style="fill:none;stroke:#FF5274;stroke-width:0.5;stroke-miterlimit:10;" d="M11.019,30.039
				c2.897,0,5.246-2.349,5.246-5.246s-2.349-5.246-5.246-5.246s-5.246,2.349-5.246,5.246S8.122,30.039,11.019,30.039z
				 M11.019,20.859c2.173,0,3.934,1.762,3.934,3.934s-1.762,3.934-3.934,3.934s-3.934-1.762-3.934-3.934S8.846,20.859,11.019,20.859
				z"/>
		</g>
		<g>
			<g>
				<path style="fill:#FF5274;" d="M81.311,21.444v6.158l4.105,1.369l4.106-4.106l5.474,5.474l-4.106,4.106l1.369,4.105h6.158v8.211
					h-6.158l-1.369,4.106l4.106,4.105l-5.474,5.474l-4.106-4.105l-4.105,1.368v6.158h-4.105H73.1v-6.158l-4.106-1.368l-4.105,4.105
					l-5.474-5.474l4.106-4.105l-1.369-4.106h-6.158V38.55h6.158l1.369-4.105l-4.106-4.106l5.474-5.474l4.105,4.106l4.106-1.369
					v-6.158h4.105H81.311 M81.811,20.944h-0.5h-4.105H73.1h-0.5v0.5v5.798l-3.471,1.157l-3.887-3.887l-0.354-0.354l-0.354,0.354
					l-5.474,5.474l-0.354,0.354l0.354,0.354l3.887,3.887l-1.157,3.47h-5.798h-0.5v0.5v8.211v0.5h0.5h5.798l1.157,3.47l-3.887,3.887
					l-0.354,0.354l0.354,0.354l5.474,5.474l0.354,0.354l0.354-0.354l3.887-3.887L72.6,58.07v5.798v0.5h0.5h4.105h4.105h0.5v-0.5
					V58.07l3.47-1.157l3.887,3.887l0.354,0.354l0.354-0.354l5.474-5.474l0.354-0.354l-0.354-0.354l-3.887-3.887l1.157-3.47h5.798
					h0.5v-0.5V38.55v-0.5h-0.5H92.62l-1.157-3.47l3.887-3.887l0.354-0.354l-0.354-0.354l-5.474-5.474l-0.354-0.354l-0.354,0.354
					l-3.887,3.887l-3.47-1.157v-5.798V20.944L81.811,20.944z"/>
			</g>
			<g>
				<path style="fill:#FF5274;" d="M77.206,38.55c2.267,0,4.105,1.838,4.105,4.106s-1.838,4.105-4.105,4.105
					S73.1,44.923,73.1,42.656S74.938,38.55,77.206,38.55 M77.206,38.05c-2.539,0-4.605,2.066-4.605,4.606
					c0,2.539,2.066,4.605,4.605,4.605s4.605-2.066,4.605-4.605C81.811,40.116,79.745,38.05,77.206,38.05L77.206,38.05z"/>
			</g>
		</g>
		<g>
			<polygon style="fill:none;stroke:#FF5274;stroke-width:0.5;stroke-miterlimit:10;" points="48.309,49.778 46.593,49.778 
				46.593,52.352 44.877,52.924 43.161,51.208 40.873,53.496 42.589,55.212 42.017,56.928 39.443,56.928 39.443,60.361 
				42.017,60.361 42.589,62.077 40.873,63.793 43.161,66.081 44.877,64.365 46.593,64.937 46.593,67.511 48.309,67.511 
				50.025,67.511 50.025,64.937 51.742,64.365 53.458,66.081 55.746,63.793 54.03,62.077 54.602,60.361 57.176,60.361 
				57.176,56.928 54.602,56.928 54.03,55.212 55.746,53.496 53.458,51.208 51.742,52.924 50.025,52.352 50.025,49.778 			"/>
			<circle style="fill:none;stroke:#FF5274;stroke-width:0.5;stroke-miterlimit:10;" cx="48.309" cy="58.645" r="1.716"/>
		</g>
		<g>
			<g>
				<path style="fill:#FF5274;" d="M81.311,21.444v6.158l4.105,1.369l4.106-4.106l5.474,5.474l-4.106,4.106l1.369,4.105h6.158v8.211
					h-6.158l-1.369,4.106l4.106,4.105l-5.474,5.474l-4.106-4.105l-4.105,1.368v6.158h-4.105H73.1v-6.158l-4.106-1.368l-4.105,4.105
					l-5.474-5.474l4.106-4.105l-1.369-4.106h-6.158V38.55h6.158l1.369-4.105l-4.106-4.106l5.474-5.474l4.105,4.106l4.106-1.369
					v-6.158h4.105H81.311 M81.811,20.944h-0.5h-4.105H73.1h-0.5v0.5v5.798l-3.471,1.157l-3.887-3.887l-0.354-0.354l-0.354,0.354
					l-5.474,5.474l-0.354,0.354l0.354,0.354l3.887,3.887l-1.157,3.47h-5.798h-0.5v0.5v8.211v0.5h0.5h5.798l1.157,3.47l-3.887,3.887
					l-0.354,0.354l0.354,0.354l5.474,5.474l0.354,0.354l0.354-0.354l3.887-3.887L72.6,58.07v5.798v0.5h0.5h4.105h4.105h0.5v-0.5
					V58.07l3.47-1.157l3.887,3.887l0.354,0.354l0.354-0.354l5.474-5.474l0.354-0.354l-0.354-0.354l-3.887-3.887l1.157-3.47h5.798
					h0.5v-0.5V38.55v-0.5h-0.5H92.62l-1.157-3.47l3.887-3.887l0.354-0.354l-0.354-0.354l-5.474-5.474l-0.354-0.354l-0.354,0.354
					l-3.887,3.887l-3.47-1.157v-5.798V20.944L81.811,20.944z"/>
			</g>
			<g>
				<path style="fill:#FF5274;" d="M77.206,38.55c2.267,0,4.105,1.838,4.105,4.106s-1.838,4.105-4.105,4.105
					S73.1,44.923,73.1,42.656S74.938,38.55,77.206,38.55 M77.206,38.05c-2.539,0-4.605,2.066-4.605,4.606
					c0,2.539,2.066,4.605,4.605,4.605s4.605-2.066,4.605-4.605C81.811,40.116,79.745,38.05,77.206,38.05L77.206,38.05z"/>
			</g>
		</g>
	</g>
</g>
<g id="&#x421;&#x43B;&#x43E;&#x439;_5">
</g>
<g id="&#x421;&#x43B;&#x43E;&#x439;_6">
</g>
<g id="&#x421;&#x43B;&#x43E;&#x439;_8">
</g>
<g id="&#x432;&#x43E;&#x437;&#x43C;&#x43E;&#x436;&#x43D;&#x44B;&#x435;_&#x44D;&#x43B;&#x435;&#x43C;&#x435;&#x43D;&#x442;&#x44B;" style="display:none;">
</g>
</svg>
