<?xml version="1.0" encoding="iso-8859-1"?>
<!-- Generator: Adobe Illustrator 18.0.0, SVG Export Plug-In . SVG Version: 6.00 Build 0)  -->
<!DOCTYPE svg PUBLIC "-//W3C//DTD SVG 1.1//EN" "http://www.w3.org/Graphics/SVG/1.1/DTD/svg11.dtd">
<svg version="1.1" xmlns="http://www.w3.org/2000/svg" xmlns:xlink="http://www.w3.org/1999/xlink" x="0px" y="0px"
	 viewBox="0 0 40 40" style="enable-background:new 0 0 40 40;" xml:space="preserve">
<g id="&#x421;&#x43B;&#x43E;&#x439;_1">
</g>
<g id="&#x444;&#x43E;&#x43D;&#x44B;">
</g>
<g id="&#x421;&#x43B;&#x43E;&#x439;_3" style="display:none;opacity:0.3;">
</g>
<g id="&#x421;&#x43B;&#x43E;&#x439;_2">
</g>
<g id="&#x421;&#x43B;&#x43E;&#x439;_5">
	<path style="fill:none;stroke:#FF5274;stroke-width:0.3;stroke-miterlimit:10;" d="M27.351,0.317H13.399
		c-1.495,0-2.741,1.246-2.741,2.741v33.884c0,1.495,1.246,2.741,2.741,2.741h13.952c1.495,0,2.741-1.246,2.741-2.741V3.058
		C30.092,1.563,28.846,0.317,27.351,0.317z M29.593,36.942c0,1.246-0.997,2.242-2.242,2.242H13.399
		c-1.246,0-2.242-0.997-2.242-2.242V3.058c0-1.246,0.997-2.242,2.242-2.242h13.952c1.246,0,2.242,0.997,2.242,2.242V36.942z"/>
	<path style="fill:none;stroke:#FF5274;stroke-width:0.3;stroke-miterlimit:10;" d="M11.904,4.802c-0.149,0-0.249,0.1-0.249,0.249
		v29.898c0,0.149,0.1,0.249,0.249,0.249h16.942c0.149,0,0.249-0.1,0.249-0.249V5.051c0-0.149-0.1-0.249-0.249-0.249H11.904z
		 M28.597,34.7H12.153V5.3h16.444V34.7z"/>
	<path style="fill:none;stroke:#FF5274;stroke-width:0.3;stroke-miterlimit:10;" d="M20.375,35.945
		c-0.698,0-1.246,0.548-1.246,1.246c0,0.698,0.548,1.246,1.246,1.246s1.246-0.548,1.246-1.246
		C21.621,36.494,21.023,35.945,20.375,35.945z M20.375,37.939c-0.399,0-0.747-0.349-0.747-0.747c0-0.399,0.349-0.747,0.747-0.747
		s0.747,0.349,0.747,0.747C21.122,37.59,20.774,37.939,20.375,37.939z"/>
	<path style="fill:none;stroke:#FF5274;stroke-width:0.3;stroke-miterlimit:10;" d="M18.83,3.307h2.99
		c0.149,0,0.249-0.1,0.249-0.249s-0.1-0.249-0.249-0.249h-2.99c-0.149,0-0.249,0.1-0.249,0.249
		C18.581,3.207,18.731,3.307,18.83,3.307z"/>
</g>
<g id="&#x421;&#x43B;&#x43E;&#x439;_6">
</g>
<g id="&#x421;&#x43B;&#x43E;&#x439;_8">
</g>
<g id="&#x432;&#x43E;&#x437;&#x43C;&#x43E;&#x436;&#x43D;&#x44B;&#x435;_&#x44D;&#x43B;&#x435;&#x43C;&#x435;&#x43D;&#x442;&#x44B;" style="display:none;">
</g>
</svg>
