<?xml version="1.0" encoding="iso-8859-1"?>
<!-- Generator: Adobe Illustrator 18.0.0, SVG Export Plug-In . SVG Version: 6.00 Build 0)  -->
<!DOCTYPE svg PUBLIC "-//W3C//DTD SVG 1.1//EN" "http://www.w3.org/Graphics/SVG/1.1/DTD/svg11.dtd">
<svg version="1.1" xmlns="http://www.w3.org/2000/svg" xmlns:xlink="http://www.w3.org/1999/xlink" x="0px" y="0px"
	 viewBox="0 0 107 82" style="enable-background:new 0 0 107 82;" xml:space="preserve">
<g id="&#x421;&#x43B;&#x43E;&#x439;_1">
</g>
<g id="&#x444;&#x43E;&#x43D;&#x44B;">
</g>
<g id="&#x421;&#x43B;&#x43E;&#x439;_3" style="display:none;opacity:0.3;">
</g>
<g id="&#x421;&#x43B;&#x43E;&#x439;_2">
	<g>
		<path style="fill:none;stroke:#FF5274;stroke-width:0.5;stroke-miterlimit:10;" d="M73.538,5.75c0.344,0,0.625-0.279,0.625-0.625
			c0-0.346-0.281-0.625-0.625-0.625h-0.013c-0.344,0-0.618,0.279-0.618,0.625C72.907,5.47,73.192,5.75,73.538,5.75z"/>
		<path style="fill:none;stroke:#FF5274;stroke-width:0.5;stroke-miterlimit:10;" d="M71.038,5.75c0.344,0,0.625-0.279,0.625-0.625
			c0-0.346-0.281-0.625-0.625-0.625h-0.013c-0.344,0-0.618,0.279-0.618,0.625C70.407,5.47,70.692,5.75,71.038,5.75z"/>
		<path style="fill:none;stroke:#FF5274;stroke-width:0.5;stroke-miterlimit:10;" d="M68.538,5.75c0.344,0,0.625-0.279,0.625-0.625
			c0-0.346-0.281-0.625-0.625-0.625h-0.013c-0.344,0-0.618,0.279-0.618,0.625C67.907,5.47,68.192,5.75,68.538,5.75z"/>
		<path style="fill:none;stroke:#FF5274;stroke-width:0.5;stroke-miterlimit:10;" d="M29.75,20.75c0.346,0,0.625-0.279,0.625-0.625
			V8.25h46.25v11.875c0,0.345,0.279,0.625,0.625,0.625c0.346,0,0.625-0.279,0.625-0.625v-17.5C77.875,2.28,77.595,2,77.25,2h-47.5
			c-0.345,0-0.625,0.279-0.625,0.625v17.5C29.125,20.47,29.404,20.75,29.75,20.75z M76.625,3.25V7H53.5H30.375V3.25H53.5H76.625z"/>
		<path style="fill:none;stroke:#FF5274;stroke-width:0.5;stroke-miterlimit:10;" d="M77.25,63.25c-0.345,0-0.625,0.279-0.625,0.625
			V80.75h-46.25V63.875c0-0.345-0.279-0.625-0.625-0.625c-0.345,0-0.625,0.279-0.625,0.625v17.5c0,0.345,0.279,0.625,0.625,0.625
			h47.5c0.346,0,0.625-0.28,0.625-0.625v-17.5C77.875,63.53,77.595,63.25,77.25,63.25z"/>
		<path style="fill:none;stroke:#FF5274;stroke-width:0.5;stroke-miterlimit:10;" d="M84.75,57h-4.375V23.875
			c0-1.034-0.841-1.875-1.875-1.875h-50c-1.034,0-1.875,0.841-1.875,1.875V57H22.25c-0.345,0-0.625,0.279-0.625,0.625v2.5
			c0,1.034,0.841,1.875,1.875,1.875h60c1.034,0,1.875-0.841,1.875-1.875v-2.5C85.375,57.279,85.095,57,84.75,57z M27.875,23.875
			c0-0.344,0.28-0.625,0.625-0.625h25.025c-0.345,0-0.619,0.28-0.619,0.625c0,0.345,0.286,0.625,0.631,0.625
			c0.345,0,0.626-0.28,0.626-0.625c0-0.345-0.28-0.625-0.626-0.625H78.5c0.344,0,0.625,0.281,0.625,0.625V57h-51.25V23.875z
			 M84.125,60.125c0,0.344-0.281,0.625-0.625,0.625h-60c-0.345,0-0.625-0.281-0.625-0.625V58.25h4.375h20.625
			c-0.345,0-0.625,0.279-0.625,0.625c0,0.346,0.279,0.625,0.625,0.625h11.25c0.345,0,0.625-0.279,0.625-0.625
			c0-0.345-0.28-0.625-0.625-0.625H79.75h4.375L84.125,60.125L84.125,60.125z"/>
		<path style="fill:none;stroke:#FF5274;stroke-width:0.5;stroke-miterlimit:10;" d="M29.125,25.125v30
			c0,0.345,0.279,0.625,0.625,0.625h47.5c0.346,0,0.625-0.279,0.625-0.625v-30c0-0.346-0.279-0.625-0.625-0.625H53.537H29.75
			C29.404,24.5,29.125,24.779,29.125,25.125z M59.722,36.349L69.932,54.5H48.377L59.722,36.349z M46.904,54.5h-6.002l6.929-10.659
			l2.684,4.881L46.904,54.5z M30.375,25.75h46.25V54.5h-5.26L60.294,34.819c-0.108-0.193-0.309-0.314-0.53-0.319
			c-0.229,0.004-0.427,0.106-0.544,0.294l-7.946,12.714l-2.851-5.184c-0.106-0.192-0.305-0.315-0.524-0.323
			c-0.231,0.001-0.427,0.1-0.548,0.284L39.411,54.5h-9.036L30.375,25.75L30.375,25.75z"/>
		<path style="fill:none;stroke:#FF5274;stroke-width:0.5;stroke-miterlimit:10;" d="M71.625,45.125c0,0.814,0.524,1.501,1.25,1.76
			v1.365c0,0.345,0.279,0.625,0.625,0.625c0.345,0,0.625-0.279,0.625-0.625v-1.365c0.726-0.259,1.25-0.946,1.25-1.76
			c0-0.814-0.524-1.501-1.25-1.76v-1.48c0.726-0.259,1.25-0.946,1.25-1.76c0-0.814-0.524-1.501-1.25-1.76v-1.48
			c0.726-0.259,1.25-0.946,1.25-1.76c0-0.814-0.524-1.501-1.25-1.76V32c0-0.345-0.28-0.625-0.625-0.625
			c-0.346,0-0.625,0.28-0.625,0.625v1.365c-0.726,0.259-1.25,0.946-1.25,1.76c0,0.814,0.524,1.501,1.25,1.76v1.48
			c-0.726,0.259-1.25,0.946-1.25,1.76c0,0.814,0.524,1.501,1.25,1.76v1.48C72.148,43.624,71.625,44.311,71.625,45.125z M73.5,45.75
			c-0.344,0-0.625-0.281-0.625-0.625c0-0.344,0.281-0.625,0.625-0.625c0.344,0,0.625,0.281,0.625,0.625
			C74.125,45.469,73.844,45.75,73.5,45.75z M73.5,34.5c0.344,0,0.625,0.281,0.625,0.625c0,0.344-0.281,0.625-0.625,0.625
			c-0.344,0-0.625-0.281-0.625-0.625S73.156,34.5,73.5,34.5z M73.5,39.5c0.344,0,0.625,0.281,0.625,0.625
			c0,0.344-0.281,0.625-0.625,0.625c-0.344,0-0.625-0.281-0.625-0.625S73.156,39.5,73.5,39.5z"/>
		<path style="fill:none;stroke:#FF5274;stroke-width:0.5;stroke-miterlimit:10;" d="M33.5,29.5h13.75
			c0.345,0,0.625-0.28,0.625-0.625c0-0.345-0.279-0.625-0.625-0.625H33.5c-0.345,0-0.625,0.28-0.625,0.625
			C32.875,29.22,33.154,29.5,33.5,29.5z"/>
		<path style="fill:none;stroke:#FF5274;stroke-width:0.5;stroke-miterlimit:10;" d="M33.5,32h13.75c0.345,0,0.625-0.28,0.625-0.625
			c0-0.345-0.279-0.625-0.625-0.625H33.5c-0.345,0-0.625,0.28-0.625,0.625S33.154,32,33.5,32z"/>
		<path style="fill:none;stroke:#FF5274;stroke-width:0.5;stroke-miterlimit:10;" d="M33.5,34.5h6.25
			c0.345,0,0.625-0.28,0.625-0.625c0-0.345-0.279-0.625-0.625-0.625H33.5c-0.345,0-0.625,0.28-0.625,0.625S33.154,34.5,33.5,34.5z"
			/>
		<path style="fill:none;stroke:#FF5274;stroke-width:0.5;stroke-miterlimit:10;" d="M35.375,37c-1.379,0-2.5,1.122-2.5,2.5
			c0,1.378,1.121,2.5,2.5,2.5s2.5-1.122,2.5-2.5C37.875,38.122,36.754,37,35.375,37z M35.375,40.75c-0.689,0-1.25-0.56-1.25-1.25
			s0.561-1.25,1.25-1.25c0.689,0,1.25,0.56,1.25,1.25C36.625,40.19,36.064,40.75,35.375,40.75z"/>
		<path style="fill:none;stroke:#FF5274;stroke-width:0.5;stroke-miterlimit:10;" d="M44.125,70.125
			c0-3.102-2.523-5.625-5.625-5.625s-5.625,2.523-5.625,5.625c0,3.102,2.523,5.625,5.625,5.625
			C41.602,75.75,44.125,73.227,44.125,70.125z M38.5,65.75c2.412,0,4.375,1.963,4.375,4.375c0,0.968-0.326,1.854-0.86,2.579
			c-0.627-0.138-1.293-0.311-1.64-0.435v-0.843c0.369-0.51,0.625-1.13,0.625-1.774C41,68.14,39.924,67,38.499,67
			C37.074,67,36,68.14,36,69.652c0,0.643,0.256,1.264,0.625,1.775v0.842c-0.347,0.123-1.013,0.297-1.64,0.435
			c-0.534-0.725-0.86-1.611-0.86-2.579C34.125,67.713,36.088,65.75,38.5,65.75z M37.25,69.652c0-0.826,0.513-1.402,1.249-1.402
			c0.737,0,1.251,0.576,1.251,1.402c0,0.947-0.945,1.723-1.251,1.723C38.193,71.375,37.25,70.6,37.25,69.652z M36.046,73.743
			c1.721-0.427,1.829-0.707,1.829-1.118v-0.151c0.211,0.089,0.423,0.151,0.624,0.151c0.201,0,0.414-0.063,0.626-0.153v0.153
			c0,0.411,0.108,0.691,1.829,1.118C40.253,74.221,39.409,74.5,38.5,74.5S36.747,74.22,36.046,73.743z"/>
		<path style="fill:none;stroke:#FF5274;stroke-width:0.5;stroke-miterlimit:10;" d="M59.125,70.125
			c0-3.102-2.523-5.625-5.625-5.625s-5.625,2.523-5.625,5.625c0,3.102,2.523,5.625,5.625,5.625S59.125,73.227,59.125,70.125z
			 M53.5,65.75c2.412,0,4.375,1.963,4.375,4.375c0,0.968-0.326,1.854-0.859,2.579c-0.628-0.138-1.294-0.311-1.641-0.435v-0.842
			C55.744,70.916,56,70.296,56,69.652C56,68.14,54.926,67,53.5,67c-1.425,0-2.5,1.14-2.5,2.653c0,0.643,0.256,1.264,0.625,1.775
			v0.842c-0.347,0.123-1.013,0.298-1.639,0.436c-0.535-0.726-0.861-1.612-0.861-2.58C49.125,67.713,51.088,65.75,53.5,65.75z
			 M52.25,69.652c0-0.826,0.514-1.402,1.25-1.402c0.736,0,1.25,0.576,1.25,1.402c0,0.947-0.944,1.723-1.25,1.723
			C53.194,71.375,52.25,70.6,52.25,69.652z M51.046,73.744c1.721-0.428,1.829-0.708,1.829-1.119v-0.153
			c0.212,0.089,0.424,0.153,0.625,0.153s0.413-0.063,0.625-0.153v0.153c0,0.411,0.108,0.691,1.83,1.118
			C55.254,74.221,54.409,74.5,53.5,74.5C52.591,74.5,51.746,74.22,51.046,73.744z"/>
		<path style="fill:none;stroke:#FF5274;stroke-width:0.5;stroke-miterlimit:10;" d="M74.125,70.125
			c0-3.102-2.523-5.625-5.625-5.625c-3.101,0-5.624,2.523-5.624,5.625c0,3.102,2.523,5.625,5.624,5.625
			C71.602,75.75,74.125,73.227,74.125,70.125z M68.5,65.75c2.412,0,4.375,1.963,4.375,4.375c0,0.968-0.326,1.854-0.859,2.579
			c-0.628-0.138-1.294-0.311-1.641-0.435v-0.842C70.744,70.916,71,70.296,71,69.652C71,68.14,69.926,67,68.5,67
			c-1.426,0-2.5,1.14-2.5,2.653c0,0.643,0.256,1.264,0.625,1.775v0.842c-0.347,0.123-1.013,0.297-1.639,0.435
			c-0.533-0.725-0.859-1.611-0.859-2.579C64.126,67.713,66.088,65.75,68.5,65.75z M67.25,69.652c0-0.826,0.514-1.402,1.25-1.402
			c0.736,0,1.25,0.576,1.25,1.402c0,0.947-0.944,1.723-1.25,1.723C68.193,71.375,67.25,70.6,67.25,69.652z M66.046,73.744
			c1.721-0.428,1.829-0.708,1.829-1.119v-0.153c0.212,0.089,0.424,0.153,0.625,0.153c0.201,0,0.413-0.063,0.625-0.153v0.153
			c0,0.411,0.108,0.691,1.83,1.118C70.254,74.221,69.409,74.5,68.5,74.5C67.59,74.5,66.747,74.22,66.046,73.744z"/>
		<path style="fill:none;stroke:#FF5274;stroke-width:0.5;stroke-miterlimit:10;" d="M51.625,5.125C51.625,6.159,52.466,7,53.5,7
			c1.034,0,1.875-0.841,1.875-1.875c0-1.034-0.841-1.875-1.875-1.875C52.466,3.25,51.625,4.091,51.625,5.125z M53.5,4.5
			c0.345,0,0.625,0.281,0.625,0.625c0,0.344-0.28,0.625-0.625,0.625s-0.625-0.281-0.625-0.625C52.875,4.781,53.155,4.5,53.5,4.5z"/>
		<path style="fill:none;stroke:#FF5274;stroke-width:0.5;stroke-miterlimit:10;" d="M33.5,5.75h3.75
			c0.345,0,0.625-0.279,0.625-0.625c0-0.346-0.279-0.625-0.625-0.625H33.5c-0.345,0-0.625,0.279-0.625,0.625
			C32.875,5.47,33.154,5.75,33.5,5.75z"/>
		<path style="fill:none;stroke:#FF5274;stroke-width:0.5;stroke-miterlimit:10;" d="M39.75,5.75h3.75
			c0.345,0,0.625-0.279,0.625-0.625c0-0.346-0.28-0.625-0.625-0.625h-3.75c-0.346,0-0.625,0.279-0.625,0.625
			C39.125,5.47,39.404,5.75,39.75,5.75z"/>
		<path style="fill:none;stroke:#FF5274;stroke-width:0.5;stroke-miterlimit:10;" d="M71.625,12.625C71.625,12.28,71.345,12,71,12
			H36c-0.345,0-0.625,0.279-0.625,0.625c0,0.346,0.28,0.625,0.625,0.625h35C71.345,13.25,71.625,12.971,71.625,12.625z"/>
		<path style="fill:none;stroke:#FF5274;stroke-width:0.5;stroke-miterlimit:10;" d="M66.625,15.125c0-0.345-0.28-0.625-0.625-0.625
			H41c-0.345,0-0.625,0.279-0.625,0.625c0,0.346,0.28,0.625,0.625,0.625h25C66.345,15.75,66.625,15.471,66.625,15.125z"/>
		<path style="fill:none;stroke:#FF5274;stroke-width:0.5;stroke-miterlimit:10;" d="M47.25,17c-0.346,0-0.625,0.279-0.625,0.625
			s0.279,0.625,0.625,0.625h12.5c0.345,0,0.625-0.279,0.625-0.625S60.096,17,59.75,17H47.25z"/>
		<path style="fill:none;stroke:#FF5274;stroke-width:0.5;stroke-miterlimit:10;" d="M36,77c-0.345,0-0.625,0.279-0.625,0.625
			c0,0.345,0.28,0.625,0.625,0.625h5c0.345,0,0.625-0.28,0.625-0.625C41.625,77.28,41.345,77,41,77H36z"/>
		<path style="fill:none;stroke:#FF5274;stroke-width:0.5;stroke-miterlimit:10;" d="M51,77c-0.345,0-0.625,0.279-0.625,0.625
			c0,0.345,0.28,0.625,0.625,0.625h5c0.345,0,0.625-0.28,0.625-0.625C56.625,77.28,56.345,77,56,77H51z"/>
		<path style="fill:none;stroke:#FF5274;stroke-width:0.5;stroke-miterlimit:10;" d="M66,77c-0.345,0-0.625,0.279-0.625,0.625
			c0,0.345,0.28,0.625,0.625,0.625h5c0.345,0,0.625-0.28,0.625-0.625C71.625,77.28,71.345,77,71,77H66z"/>
	</g>
</g>
<g id="&#x421;&#x43B;&#x43E;&#x439;_5">
</g>
<g id="&#x421;&#x43B;&#x43E;&#x439;_6">
</g>
<g id="&#x421;&#x43B;&#x43E;&#x439;_8">
</g>
<g id="&#x432;&#x43E;&#x437;&#x43C;&#x43E;&#x436;&#x43D;&#x44B;&#x435;_&#x44D;&#x43B;&#x435;&#x43C;&#x435;&#x43D;&#x442;&#x44B;" style="display:none;">
</g>
</svg>
