<?xml version="1.0" encoding="iso-8859-1"?>
<!-- Generator: Adobe Illustrator 18.0.0, SVG Export Plug-In . SVG Version: 6.00 Build 0)  -->
<!DOCTYPE svg PUBLIC "-//W3C//DTD SVG 1.1//EN" "http://www.w3.org/Graphics/SVG/1.1/DTD/svg11.dtd">
<svg version="1.1" xmlns="http://www.w3.org/2000/svg" xmlns:xlink="http://www.w3.org/1999/xlink" x="0px" y="0px"
	 viewBox="0 0 40 40" style="enable-background:new 0 0 40 40;" xml:space="preserve">
<g id="&#x421;&#x43B;&#x43E;&#x439;_1">
</g>
<g id="&#x444;&#x43E;&#x43D;&#x44B;">
</g>
<g id="&#x421;&#x43B;&#x43E;&#x439;_3" style="display:none;opacity:0.3;">
</g>
<g id="&#x421;&#x43B;&#x43E;&#x439;_2">
</g>
<g id="&#x421;&#x43B;&#x43E;&#x439;_5">
	<path style="fill:#FF5274;" d="M0.5,20.5C0.5,31.252,9.248,40,20,40s19.5-8.748,19.5-19.5S30.752,1,20,1S0.5,9.748,0.5,20.5z
		 M4.218,10.713c2.086-3.361,5.08-5.921,8.656-7.401l1.806-0.748l-1.225,1.523c-0.624,0.775-1.178,1.669-1.696,2.733
		c-0.598,1.229-1.117,2.671-1.543,4.284l-0.098,0.372H3.744L4.218,10.713z M1.465,19.521c0.126-2.414,0.692-4.719,1.683-6.852
		l0.134-0.289h6.612l-0.118,0.597c-0.397,2.013-0.625,4.227-0.675,6.581L9.09,20.048H1.438L1.465,19.521z M3.147,28.33
		c-0.99-2.133-1.556-4.438-1.683-6.852l-0.027-0.526H9.09l0.011,0.489c0.052,2.379,0.279,4.593,0.675,6.58l0.119,0.598H3.282
		L3.147,28.33z M12.874,37.688c-3.575-1.479-6.568-4.038-8.656-7.4l-0.474-0.764l6.373-0.001l0.099,0.372
		c0.419,1.579,0.938,3.011,1.543,4.255c0.528,1.085,1.099,2.016,1.697,2.765l1.21,1.516L12.874,37.688z M19.548,39.063l-0.527-0.028
		c-0.111-0.006-0.222-0.007-0.332-0.008c-0.186-0.002-0.372-0.005-0.556-0.024c-2.177-0.422-4.08-2.234-5.547-5.248
		c-0.501-1.029-0.952-2.238-1.34-3.593l-0.183-0.638l8.485-0.001V39.063z M19.548,28.619h-8.702l-0.084-0.396
		c-0.444-2.08-0.698-4.354-0.755-6.76l-0.012-0.512h9.554V28.619z M19.548,20.048H9.994l0.012-0.512
		c0.057-2.396,0.311-4.671,0.755-6.76l0.084-0.396h8.703V20.048z M11.063,11.477l0.182-0.638c0.399-1.396,0.85-2.614,1.341-3.623
		c1.454-2.987,3.346-4.789,5.471-5.212l0.106-0.01l0.018,0.001c0.164-0.016,0.346-0.019,0.527-0.021
		c0.104-0.002,0.209-0.003,0.314-0.008l0.524-0.026l0,9.537H11.063z M35.782,30.287c-2.087,3.362-5.08,5.922-8.656,7.401
		l-1.792,0.742l1.21-1.516c0.598-0.749,1.169-1.68,1.697-2.765c0.605-1.243,1.125-2.675,1.544-4.254l0.099-0.372l6.372-0.001
		L35.782,30.287z M38.535,21.479c-0.126,2.414-0.692,4.719-1.683,6.852l-0.134,0.289h-6.613l0.119-0.598
		c0.396-1.99,0.623-4.204,0.675-6.58l0.011-0.489h7.653L38.535,21.479z M36.853,12.67c0.99,2.133,1.556,4.437,1.683,6.852
		l0.027,0.526H30.91l-0.011-0.489c-0.051-2.354-0.278-4.568-0.675-6.581l-0.118-0.597h6.612L36.853,12.67z M27.126,3.312
		c3.576,1.481,6.569,4.041,8.656,7.401l0.474,0.764h-6.373l-0.099-0.372c-0.427-1.614-0.946-3.056-1.544-4.284
		c-0.518-1.064-1.072-1.958-1.696-2.733L25.32,2.563L27.126,3.312z M20.453,1.939l0.524,0.026c0.113,0.005,0.226,0.006,0.338,0.007
		c0.194,0.002,0.388,0.005,0.579,0.024c2.174,0.43,4.066,2.232,5.52,5.219c0.492,1.01,0.943,2.229,1.341,3.622l0.182,0.638h-8.484
		V1.939z M20.453,12.381h8.702l0.084,0.396c0.444,2.089,0.698,4.363,0.755,6.76l0.012,0.512h-9.553V12.381z M20.453,20.952h9.554
		l-0.012,0.512c-0.057,2.405-0.311,4.68-0.755,6.76l-0.084,0.396h-8.702V20.952z M20.453,29.523h8.484l-0.183,0.638
		c-0.387,1.352-0.838,2.561-1.34,3.594c-1.472,3.024-3.387,4.838-5.536,5.242c-0.224,0.023-0.405,0.026-0.587,0.029
		c-0.105,0.002-0.209,0.003-0.314,0.008l-0.524,0.026V29.523z"/>
</g>
<g id="&#x421;&#x43B;&#x43E;&#x439;_6">
</g>
<g id="&#x421;&#x43B;&#x43E;&#x439;_8">
</g>
<g id="&#x432;&#x43E;&#x437;&#x43C;&#x43E;&#x436;&#x43D;&#x44B;&#x435;_&#x44D;&#x43B;&#x435;&#x43C;&#x435;&#x43D;&#x442;&#x44B;" style="display:none;">
</g>
</svg>
