<?xml version="1.0" encoding="iso-8859-1"?>
<!-- Generator: Adobe Illustrator 18.0.0, SVG Export Plug-In . SVG Version: 6.00 Build 0)  -->
<!DOCTYPE svg PUBLIC "-//W3C//DTD SVG 1.1//EN" "http://www.w3.org/Graphics/SVG/1.1/DTD/svg11.dtd">
<svg version="1.1" xmlns="http://www.w3.org/2000/svg" xmlns:xlink="http://www.w3.org/1999/xlink" x="0px" y="0px"
	 viewBox="0 0 107 82" style="enable-background:new 0 0 107 82;" xml:space="preserve">
<g id="&#x421;&#x43B;&#x43E;&#x439;_1">
</g>
<g id="&#x444;&#x43E;&#x43D;&#x44B;">
</g>
<g id="&#x421;&#x43B;&#x43E;&#x439;_3" style="display:none;opacity:0.3;">
</g>
<g id="&#x421;&#x43B;&#x43E;&#x439;_2">
	<g>
		<path style="fill:none;stroke:#FF5274;stroke-width:0.5;stroke-miterlimit:10;" d="M54.339,49.657
			c7.185,0,13.01-5.825,13.01-13.01s-5.825-13.01-13.01-13.01s-13.01,5.825-13.01,13.01v0C41.337,43.83,47.157,49.65,54.339,49.657z
			 M47.782,46.366c1.01-0.236,2.466-0.59,3.62-0.957l0,0c0.494-0.15,0.897-0.51,1.102-0.984c0.232-0.647,0.282-1.346,0.144-2.02
			c0.508,0.331,1.099,0.513,1.705,0.525c0.653-0.012,1.287-0.217,1.823-0.59c-0.146,0.695-0.096,1.417,0.144,2.085
			c0.201,0.487,0.611,0.857,1.115,1.01l0,0c1.089,0.341,2.439,0.682,3.436,0.918c-3.958,2.688-9.156,2.688-13.115,0L47.782,46.366z
			 M49.802,33.789c0.002-2.513,2.04-4.55,4.554-4.548c2.511,0.002,4.546,2.037,4.548,4.548c0,2.807-2.295,7.869-4.551,7.869
			c-1.017-0.168-1.901-0.791-2.4-1.692l-0.144-0.354h-0.066c-1.121-1.746-1.772-3.752-1.889-5.823L49.802,33.789z M54.287,24.949
			c6.454-0.002,11.687,5.227,11.69,11.681c0.001,3.292-1.386,6.432-3.821,8.647c-0.839-0.184-2.872-0.656-4.341-1.115l-0.197,0.63
			l0.197-0.63c-0.138-0.04-0.25-0.141-0.302-0.275c-0.354-0.8,0.223-2.715,0.682-3.751c1.198-1.907,1.893-4.086,2.02-6.334
			c-0.001-3.238-2.627-5.861-5.865-5.86c-3.236,0.001-5.858,2.624-5.86,5.86c0.167,2.423,0.992,4.753,2.387,6.741
			c0.498,1.039,0.681,2.202,0.525,3.344c-0.052,0.134-0.164,0.236-0.302,0.275l0.197,0.63l-0.236-0.669
			c-1.613,0.511-3.934,1.023-4.551,1.167c-4.795-4.319-5.181-11.708-0.861-16.503c2.227-2.472,5.403-3.878,8.73-3.864L54.287,24.949
			z"/>
		
			<rect x="40.713" y="58.549" style="fill:none;stroke:#FF5274;stroke-width:0.5;stroke-miterlimit:10;" width="27.541" height="1.311"/>
		
			<rect x="45.303" y="67.73" style="fill:none;stroke:#FF5274;stroke-width:0.5;stroke-miterlimit:10;" width="18.361" height="1.311"/>
		
			<rect x="34.156" y="63.139" style="fill:none;stroke:#FF5274;stroke-width:0.5;stroke-miterlimit:10;" width="40" height="1.311"/>
		<path style="fill:none;stroke:#FF5274;stroke-width:0.5;stroke-miterlimit:10;" d="M0.385,1.5v80h106.23v-80H0.385z
			 M105.303,2.811v8.525H1.697V2.811H105.303z M1.697,80.189V12.648h103.607v67.541H1.697z"/>
		<circle style="fill:none;stroke:#FF5274;stroke-width:0.5;stroke-miterlimit:10;" cx="6.575" cy="7.284" r="1.639"/>
		<circle style="fill:none;stroke:#FF5274;stroke-width:0.5;stroke-miterlimit:10;" cx="12.477" cy="7.284" r="1.639"/>
		<circle style="fill:none;stroke:#FF5274;stroke-width:0.5;stroke-miterlimit:10;" cx="18.379" cy="7.284" r="1.639"/>
	</g>
</g>
<g id="&#x421;&#x43B;&#x43E;&#x439;_5">
</g>
<g id="&#x421;&#x43B;&#x43E;&#x439;_6">
</g>
<g id="&#x421;&#x43B;&#x43E;&#x439;_8">
</g>
<g id="&#x432;&#x43E;&#x437;&#x43C;&#x43E;&#x436;&#x43D;&#x44B;&#x435;_&#x44D;&#x43B;&#x435;&#x43C;&#x435;&#x43D;&#x442;&#x44B;" style="display:none;">
</g>
</svg>
