<?xml version="1.0" encoding="iso-8859-1"?>
<!-- Generator: Adobe Illustrator 18.0.0, SVG Export Plug-In . SVG Version: 6.00 Build 0)  -->
<!DOCTYPE svg PUBLIC "-//W3C//DTD SVG 1.1//EN" "http://www.w3.org/Graphics/SVG/1.1/DTD/svg11.dtd">
<svg version="1.1" xmlns="http://www.w3.org/2000/svg" xmlns:xlink="http://www.w3.org/1999/xlink" x="0px" y="0px"
	 viewBox="0 0 107 82" style="enable-background:new 0 0 107 82;" xml:space="preserve">
<g id="&#x421;&#x43B;&#x43E;&#x439;_1">
</g>
<g id="&#x444;&#x43E;&#x43D;&#x44B;">
</g>
<g id="&#x421;&#x43B;&#x43E;&#x439;_3" style="display:none;opacity:0.3;">
</g>
<g id="&#x421;&#x43B;&#x43E;&#x439;_2">
	<g>
		
			<rect x="87.844" y="1.5" style="fill:none;stroke:#FF5274;stroke-width:0.5;stroke-miterlimit:10;" width="4.999" height="5.001"/>
		
			<rect x="82.842" y="1.5" style="fill:none;stroke:#FF5274;stroke-width:0.5;stroke-miterlimit:10;" width="5.002" height="5.001"/>
		
			<rect x="77.843" y="1.5" style="fill:none;stroke:#FF5274;stroke-width:0.5;stroke-miterlimit:10;" width="4.999" height="5.001"/>
		<path style="fill:none;stroke:#FF5274;stroke-width:0.5;stroke-miterlimit:10;" d="M46.626,70.324
			c3.424-0.604,6.025-3.592,6.025-7.188c0-4.037-3.27-7.311-7.306-7.311c-2.872,0-5.349,1.657-6.544,4.065L46.626,70.324z"/>
		<polygon style="fill:none;stroke:#FF5274;stroke-width:0.5;stroke-miterlimit:10;" points="75.345,27.752 79.093,35.252 
			71.592,35.245 		"/>
		<polygon style="fill:none;stroke:#FF5274;stroke-width:0.5;stroke-miterlimit:10;" points="62.842,64.001 75.345,64.001 
			75.345,35.248 75.345,64.001 		"/>
		<polygon style="fill:none;stroke:#FF5274;stroke-width:0.5;stroke-miterlimit:10;" points="62.842,11.501 62.842,31.5 
			73.468,31.5 75.345,27.752 77.219,31.5 87.844,31.5 87.844,11.501 		"/>
		<g>
			
				<rect x="17.841" y="21.502" style="fill:none;stroke:#FF5274;stroke-width:0.5;stroke-miterlimit:10;" width="40.002" height="19.999"/>
			
				<rect x="17.841" y="11.501" style="fill:none;stroke:#FF5274;stroke-width:0.5;stroke-miterlimit:10;" width="40.002" height="4.999"/>
			
				<rect x="17.841" y="46.5" style="fill:none;stroke:#FF5274;stroke-width:0.5;stroke-miterlimit:10;" width="45.001" height="35"/>
			
				<rect x="21.593" y="50.251" style="fill:none;stroke:#FF5274;stroke-width:0.5;stroke-miterlimit:10;" width="37.501" height="27.499"/>
			<rect x="12.843" y="1.5" style="fill:none;stroke:#FF5274;stroke-width:0.5;stroke-miterlimit:10;" width="80" height="5.001"/>
			<polygon style="fill:none;stroke:#FF5274;stroke-width:0.5;stroke-miterlimit:10;" points="52.197,77.75 34.385,54 
				21.593,71.053 21.593,77.75 			"/>
			<polygon style="fill:none;stroke:#FF5274;stroke-width:0.5;stroke-miterlimit:10;" points="12.843,6.503 12.843,51.502 
				17.841,51.502 17.841,46.5 62.842,46.5 62.842,51.502 92.843,51.502 92.843,6.503 			"/>
		</g>
	</g>
</g>
<g id="&#x421;&#x43B;&#x43E;&#x439;_5">
</g>
<g id="&#x421;&#x43B;&#x43E;&#x439;_6">
</g>
<g id="&#x421;&#x43B;&#x43E;&#x439;_8">
</g>
<g id="&#x432;&#x43E;&#x437;&#x43C;&#x43E;&#x436;&#x43D;&#x44B;&#x435;_&#x44D;&#x43B;&#x435;&#x43C;&#x435;&#x43D;&#x442;&#x44B;" style="display:none;">
</g>
</svg>
