<?xml version="1.0" encoding="iso-8859-1"?>
<!-- Generator: Adobe Illustrator 18.0.0, SVG Export Plug-In . SVG Version: 6.00 Build 0)  -->
<!DOCTYPE svg PUBLIC "-//W3C//DTD SVG 1.1//EN" "http://www.w3.org/Graphics/SVG/1.1/DTD/svg11.dtd">
<svg version="1.1" xmlns="http://www.w3.org/2000/svg" xmlns:xlink="http://www.w3.org/1999/xlink" x="0px" y="0px"
	 viewBox="0 0 13.527 10.301" style="enable-background:new 0 0 13.527 10.301;" xml:space="preserve">
<g id="&#x421;&#x43B;&#x43E;&#x439;_1">
</g>
<g id="&#x444;&#x43E;&#x43D;&#x44B;">
</g>
<g id="&#x421;&#x43B;&#x43E;&#x439;_3" style="display:none;opacity:0.3;">
</g>
<g id="&#x421;&#x43B;&#x43E;&#x439;_2">
	<path style="fill:#303949;" d="M13.305,9.806c-0.02-0.099-0.078-0.185-0.162-0.242L7.358,5.723
		c0.277-0.524,0.449-1.111,0.449-1.744c0-2.075-1.688-3.763-3.763-3.763S0.281,1.905,0.281,3.979s1.688,3.763,3.763,3.763
		c1.169,0,2.202-0.547,2.892-1.386l5.785,3.841c0.063,0.042,0.135,0.064,0.211,0.064c0.128,0,0.247-0.064,0.317-0.169
		C13.305,10.007,13.325,9.905,13.305,9.806z M4.044,7.046c-1.691,0-3.067-1.376-3.067-3.067s1.376-3.067,3.067-3.067
		S7.11,2.288,7.11,3.979S5.735,7.046,4.044,7.046z"/>
</g>
<g id="&#x421;&#x43B;&#x43E;&#x439;_5">
</g>
<g id="&#x421;&#x43B;&#x43E;&#x439;_6">
</g>
<g id="&#x421;&#x43B;&#x43E;&#x439;_8">
</g>
<g id="&#x432;&#x43E;&#x437;&#x43C;&#x43E;&#x436;&#x43D;&#x44B;&#x435;_&#x44D;&#x43B;&#x435;&#x43C;&#x435;&#x43D;&#x442;&#x44B;" style="display:none;">
</g>
</svg>
