<?xml version="1.0" encoding="utf-8"?>
<!-- Generator: Adobe Illustrator 18.0.0, SVG Export Plug-In . SVG Version: 6.00 Build 0)  -->
<!DOCTYPE svg PUBLIC "-//W3C//DTD SVG 1.1//EN" "http://www.w3.org/Graphics/SVG/1.1/DTD/svg11.dtd">
<svg version="1.1" id="headphones" xmlns="http://www.w3.org/2000/svg" xmlns:xlink="http://www.w3.org/1999/xlink" x="0px" y="0px"
	 viewBox="0 0 60 60" enable-background="new 0 0 60 60" xml:space="preserve">
<path fill="#568604" d="M20.1,43.8l-3.4-12.6c-0.5-1.8-1.7-3.4-3.3-4.3C11.8,26,9.9,25.7,8,26.2c-1.8,0.5-3.3,1.7-4.3,3.3
	c-0.9,1.5-1.1,3.2-0.8,4.8l-2.1,0.6c-0.6,0.2-0.9,0.8-0.8,1.3l3.4,12.6c0.1,0.3,0.3,0.5,0.5,0.7c0.2,0.1,0.4,0.1,0.5,0.1
	c0.1,0,0.2,0,0.3,0L7.1,49c1.2,2.3,3.6,3.7,6.2,3.7c0.6,0,1.2-0.1,1.8-0.2C18.8,51.5,21.1,47.6,20.1,43.8z"/>
<polygon fill="#D6F7CB" points="2.4,36.7 3.5,36.5 4.6,40.8 6.3,47 5.2,47.2 "/>
<path fill="#D6F7CB" d="M14.5,50.4c-2.6,0.7-5.3-0.9-6-3.5l-1.8-6.6l-1.6-6c-0.3-1.3-0.2-2.6,0.5-3.7c0.7-1.1,1.7-1.9,3-2.3
	c0.4-0.1,0.8-0.2,1.3-0.2c0.8,0,1.7,0.2,2.4,0.7c1.1,0.7,1.9,1.7,2.3,3L18,44.4C18.7,47,17.1,49.7,14.5,50.4z"/>
<path fill="#568604" d="M60,49.8c0-2.6-1.6-5-4-6l2-7.5c0.2-0.6-0.2-1.2-0.8-1.3l-2.1-0.6c0.3-1.7,0-3.4-0.8-4.8
	c-0.9-1.6-2.5-2.8-4.3-3.3c-1.8-0.5-3.7-0.2-5.4,0.7c-1.6,0.9-2.8,2.5-3.3,4.3L38,43.8c-1,3.8,1.2,7.7,5,8.7
	c0.6,0.2,1.2,0.2,1.8,0.2c2.6,0,5-1.4,6.2-3.7l2.3,0.6c0.1,0,0.2,0,0.3,0c0.2,0,0.4,0,0.5-0.1c0.2-0.1,0.4-0.4,0.5-0.7l0.8-3
	c1.5,0.7,2.4,2.2,2.4,3.9c0,0.1,0,0.1,0,0.2c0,0.1,0,0.1,0,0.2c0,2.4-2,4.3-4.3,4.3H34.8c-0.5-1.9-2.2-3.3-4.2-3.3h-6.5
	c-2.4,0-4.3,2-4.3,4.3s1.9,4.3,4.3,4.3h6.5c2,0,3.7-1.4,4.2-3.3h18.6c3.6,0,6.5-2.9,6.5-6.5c0-0.1,0-0.1,0-0.2
	C60,49.9,60,49.9,60,49.8z"/>
<path fill="#D6F7CB" d="M43.5,50.4c-2.6-0.7-4.2-3.4-3.5-6l3.4-12.6c0.3-1.3,1.1-2.3,2.3-3c0.8-0.4,1.6-0.7,2.4-0.7
	c0.4,0,0.8,0.1,1.3,0.2c1.3,0.3,2.3,1.1,3,2.3c0.7,1.1,0.8,2.5,0.5,3.7l-1.6,6l-1.8,6.6C48.8,49.5,46.1,51.1,43.5,50.4z"/>
<polygon fill="#D6F7CB" points="52.8,47.2 51.7,47 53.4,40.8 54.6,36.5 55.6,36.7 "/>
<path fill="#D6F7CB" d="M30.6,57.7h-6.5c-1.2,0-2.2-1-2.2-2.2c0-1.2,1-2.2,2.2-2.2h6.5c1.2,0,2.2,1,2.2,2.2
	C32.8,56.7,31.8,57.7,30.6,57.7z"/>
<path fill="#568604" d="M2.4,28.9c0.6,0,1.1-0.5,1.1-1.1C3.5,13.7,14.9,2.3,29,2.3s25.6,11.5,25.6,25.6c0,0.6,0.5,1.1,1.1,1.1
	s1.1-0.5,1.1-1.1C56.7,12.5,44.3,0.1,29,0.1S1.3,12.5,1.3,27.8C1.3,28.4,1.8,28.9,2.4,28.9z"/>
</svg>
