<?xml version="1.0" encoding="utf-8"?>
<!-- Generator: Adobe Illustrator 18.0.0, SVG Export Plug-In . SVG Version: 6.00 Build 0)  -->
<!DOCTYPE svg PUBLIC "-//W3C//DTD SVG 1.1//EN" "http://www.w3.org/Graphics/SVG/1.1/DTD/svg11.dtd">
<svg version="1.1" id="musictext" xmlns="http://www.w3.org/2000/svg" xmlns:xlink="http://www.w3.org/1999/xlink" x="0px" y="0px"
	 viewBox="0 0 60 60" enable-background="new 0 0 60 60" xml:space="preserve">
<path fill="#568604" d="M50,10.5c-2.6-1.7-4.8-2.6-4.9-2.7c-0.4-0.2-0.8-0.1-1.1,0.1c-0.3,0.2-0.5,0.6-0.5,1v28.5
	c-2.5-2-6.7-2.4-10.5-0.7c-2.5,1-4.5,2.7-5.7,4.8c-1.3,2.2-1.5,4.5-0.7,6.4c0.8,2,2.7,3.4,5.1,4c0.8,0.2,1.6,0.3,2.4,0.3
	c1.6,0,3.4-0.4,5-1c4.4-1.9,7.2-5.8,6.8-9.4c0,0,0,0,0,0V10.9c0.8,0.4,1.8,1,2.8,1.6c5.7,3.7,11.6,9.6,7.5,17
	c-0.3,0.6-0.1,1.3,0.5,1.6c0.6,0.3,1.3,0.1,1.6-0.5C62.2,23.6,59.2,16.5,50,10.5z"/>
<path fill="#D6F7CB" d="M38.1,49c-2,0.8-4.1,1.1-5.9,0.6c-1.7-0.4-2.9-1.3-3.4-2.6c-0.5-1.3-0.4-2.8,0.5-4.3c1-1.6,2.6-3,4.6-3.8
	c1.4-0.6,2.8-0.9,4.1-0.9c2.4,0,4.5,1,5.3,2.8C44.4,43.7,42.1,47.3,38.1,49z"/>
<path fill="#568604" d="M1.2,16.8h35c0.7,0,1.2-0.5,1.2-1.2c0-0.7-0.5-1.2-1.2-1.2h-35c-0.7,0-1.2,0.5-1.2,1.2
	C0,16.3,0.5,16.8,1.2,16.8z"/>
<path fill="#568604" d="M1.2,22.8h35c0.7,0,1.2-0.5,1.2-1.2c0-0.7-0.5-1.2-1.2-1.2h-35C0.5,20.4,0,21,0,21.6
	C0,22.3,0.5,22.8,1.2,22.8z"/>
<path fill="#568604" d="M1.2,28.9h35c0.7,0,1.2-0.5,1.2-1.2s-0.5-1.2-1.2-1.2h-35C0.5,26.5,0,27,0,27.7S0.5,28.9,1.2,28.9z"/>
<path fill="#568604" d="M1.2,34.9H29c0.7,0,1.2-0.5,1.2-1.2c0-0.7-0.5-1.2-1.2-1.2H1.2C0.5,32.5,0,33,0,33.7
	C0,34.4,0.5,34.9,1.2,34.9z"/>
<path fill="#568604" d="M21.7,38.5H1.2c-0.7,0-1.2,0.5-1.2,1.2C0,40.4,0.5,41,1.2,41h20.5c0.7,0,1.2-0.5,1.2-1.2
	C22.9,39.1,22.4,38.5,21.7,38.5z"/>
<path fill="#568604" d="M21.7,44.6H1.2c-0.7,0-1.2,0.5-1.2,1.2C0,46.5,0.5,47,1.2,47h20.5c0.7,0,1.2-0.5,1.2-1.2
	C22.9,45.1,22.4,44.6,21.7,44.6z"/>
</svg>
