<?xml version="1.0" encoding="utf-8"?>
<!-- Generator: Adobe Illustrator 18.0.0, SVG Export Plug-In . SVG Version: 6.00 Build 0)  -->
<!DOCTYPE svg PUBLIC "-//W3C//DTD SVG 1.1//EN" "http://www.w3.org/Graphics/SVG/1.1/DTD/svg11.dtd">
<svg version="1.1" id="saviour" xmlns="http://www.w3.org/2000/svg" xmlns:xlink="http://www.w3.org/1999/xlink" x="0px" y="0px"
	 viewBox="0 0 60 60" enable-background="new 0 0 60 60" xml:space="preserve">
<path fill="#568604" d="M51.8,9.1C51.8,9.1,51.8,9.1,51.8,9.1c-0.1-0.2-0.2-0.2-0.3-0.4c-0.3-0.3-0.6-0.6-0.9-0.9
	c-0.1-0.1-0.3-0.3-0.4-0.4c-0.4-0.4-0.9-0.8-1.4-1.2c-0.1-0.1-0.2-0.2-0.3-0.2c-0.4-0.3-0.8-0.6-1.2-0.9c-0.1-0.1-0.3-0.2-0.4-0.3
	c-0.5-0.3-1-0.7-1.6-1c-0.5-0.3-1.1-0.6-1.7-0.9c-0.2-0.1-0.3-0.1-0.5-0.2c-0.5-0.2-0.9-0.4-1.4-0.6c-0.1,0-0.2-0.1-0.3-0.1
	c-0.6-0.2-1.1-0.4-1.7-0.6c-0.2-0.1-0.4-0.1-0.6-0.2c-0.4-0.1-0.8-0.2-1.2-0.3c-0.1,0-0.3-0.1-0.4-0.1c0,0,0,0-0.1,0
	c-9.4-2.2-19.5,0.5-26.5,7.1c0,0,0,0,0,0c-0.1,0.1-0.2,0.2-0.3,0.3c-0.3,0.3-0.6,0.6-0.9,0.9C9.5,9.3,9.3,9.4,9.2,9.6
	C8.8,10,8.4,10.4,8,10.9C8,11,7.9,11.1,7.8,11.2c-0.3,0.4-0.6,0.8-0.9,1.2c-0.1,0.1-0.2,0.3-0.3,0.4c-0.3,0.5-0.7,1-1,1.6
	C5.3,15,5,15.6,4.7,16.1c-0.1,0.2-0.2,0.3-0.2,0.5c-0.2,0.4-0.4,0.9-0.6,1.4c-0.1,0.1-0.1,0.3-0.2,0.4c-0.2,0.5-0.4,1.1-0.6,1.7
	C3.1,20.2,3,20.4,3,20.6c-0.1,0.4-0.2,0.8-0.3,1.2c0,0.2-0.1,0.3-0.1,0.4c0,0,0,0,0,0.1C0.3,31.7,3,41.8,9.6,48.8c0,0,0,0,0,0.1
	c0.1,0.1,0.2,0.2,0.3,0.3c0.3,0.3,0.6,0.6,0.9,0.9c0.1,0.1,0.3,0.3,0.4,0.4c0.4,0.4,0.9,0.8,1.4,1.2c0.1,0.1,0.2,0.2,0.3,0.2
	c0.4,0.3,0.8,0.6,1.2,0.9c0.1,0.1,0.3,0.2,0.4,0.3c0.5,0.3,1,0.7,1.6,1c0.6,0.3,1.2,0.7,1.8,1c0.2,0.1,0.4,0.2,0.7,0.3
	c0.4,0.2,0.8,0.4,1.2,0.5c0.3,0.1,0.6,0.2,0.9,0.3c0.3,0.1,0.7,0.3,1,0.4c0.3,0.1,0.7,0.2,1,0.3c0.3,0.1,0.6,0.2,0.9,0.3
	c0.1,0,0.3,0.1,0.4,0.1c0.1,0,0.1,0,0.2,0c2.1,0.5,4.3,0.8,6.5,0.8c7.3,0,14.5-2.8,19.9-7.9c0,0,0.1,0,0.1-0.1
	c0.1-0.1,0.2-0.2,0.2-0.2c0.2-0.2,0.4-0.5,0.7-0.7c0.2-0.2,0.5-0.5,0.7-0.7c0.2-0.3,0.5-0.6,0.7-0.9c0.2-0.2,0.4-0.4,0.6-0.7
	c0.3-0.4,0.5-0.7,0.8-1.1c0.1-0.2,0.3-0.4,0.4-0.5c0.4-0.6,0.7-1.1,1.1-1.7c0.3-0.5,0.6-1.1,0.9-1.7c0.1-0.2,0.1-0.3,0.2-0.5
	c0.2-0.5,0.4-0.9,0.6-1.4c0-0.1,0.1-0.2,0.1-0.4c0.2-0.6,0.4-1.1,0.6-1.7c0.1-0.2,0.1-0.4,0.2-0.6c0.1-0.4,0.2-0.8,0.3-1.2
	c0-0.1,0.1-0.3,0.1-0.4c0,0,0,0,0-0.1C61.1,26.2,58.4,16.2,51.8,9.1z M44.9,29.7c0,0.5-0.1,0.9-0.1,1.4c0,0.2-0.1,0.3-0.1,0.5
	c-0.1,0.3-0.1,0.7-0.2,1c-0.1,0.2-0.1,0.4-0.2,0.6c-0.1,0.3-0.2,0.7-0.4,1c-0.1,0.2-0.1,0.3-0.2,0.5c-0.2,0.5-0.4,0.9-0.7,1.4
	c-0.3,0.5-0.6,0.9-0.9,1.3c-0.1,0.1-0.2,0.2-0.2,0.3c-0.3,0.3-0.5,0.6-0.8,0.9c-0.1,0.1-0.2,0.2-0.3,0.3c-0.3,0.3-0.6,0.6-0.9,0.8
	c-0.1,0.1-0.2,0.2-0.3,0.2c-0.4,0.3-0.8,0.6-1.2,0.8c-1.2,0.8-2.6,1.4-4.1,1.8c-1.5,0.4-3,0.5-4.5,0.5c-0.5,0-0.9-0.1-1.4-0.1
	c-0.2,0-0.3-0.1-0.5-0.1c-0.3-0.1-0.7-0.1-1-0.2c-0.2-0.1-0.4-0.1-0.6-0.2c-0.3-0.1-0.6-0.2-1-0.3c-0.2-0.1-0.3-0.1-0.5-0.2
	c-0.5-0.2-0.9-0.4-1.4-0.7c-0.5-0.3-0.9-0.6-1.3-0.9c-0.1-0.1-0.2-0.2-0.3-0.3c-0.3-0.3-0.6-0.5-0.9-0.8c-0.1-0.1-0.2-0.2-0.3-0.3
	c-0.3-0.3-0.6-0.6-0.8-0.9c-0.1-0.1-0.2-0.2-0.3-0.3c-0.3-0.4-0.6-0.7-0.8-1.1c-0.8-1.2-1.4-2.6-1.8-4.1c-0.4-1.5-0.5-3-0.5-4.5
	c0-0.5,0.1-0.9,0.1-1.4c0-0.2,0.1-0.3,0.1-0.5c0.1-0.3,0.1-0.7,0.2-1c0.1-0.2,0.1-0.4,0.2-0.6c0.1-0.3,0.2-0.6,0.3-1
	c0.1-0.2,0.1-0.3,0.2-0.5c0.2-0.5,0.4-0.9,0.7-1.4c0.3-0.5,0.7-1,1-1.5c0.1-0.2,0.3-0.3,0.4-0.5c0.3-0.3,0.5-0.6,0.8-0.9
	c0.2-0.2,0.3-0.3,0.5-0.5c0.3-0.3,0.6-0.5,0.9-0.7c0.2-0.1,0.3-0.3,0.5-0.4c2.4-1.7,5.3-2.6,8.2-2.6c0.3,0,0.5,0,0.8,0
	c0.4,0,0.9,0.1,1.3,0.1c0.1,0,0.3,0,0.4,0.1c0.4,0.1,0.9,0.2,1.3,0.3c0.1,0,0.3,0.1,0.4,0.1c0.4,0.1,0.9,0.3,1.3,0.5
	c0.1,0,0.2,0.1,0.2,0.1c0.5,0.2,0.9,0.4,1.4,0.7c0.5,0.3,0.9,0.6,1.3,0.9c0.1,0.1,0.2,0.2,0.3,0.2c0.3,0.3,0.6,0.5,0.9,0.8
	c0.1,0.1,0.2,0.2,0.3,0.3c0.3,0.3,0.6,0.6,0.8,0.9c0.1,0.1,0.2,0.2,0.2,0.3c0.3,0.4,0.6,0.8,0.8,1.2c0.8,1.2,1.4,2.6,1.8,4.1
	C44.8,26.7,45,28.2,44.9,29.7z"/>
<path fill="#FFFFFF" d="M57.1,33.9L47,29c0-1.4-0.2-2.8-0.5-4.2c-0.4-1.4-0.9-2.7-1.7-4l6.3-9.3C56.4,17.6,58.6,25.9,57.1,33.9z"/>
<path fill="#D6F7CB" d="M56.6,36.1c-0.1,0.5-0.3,0.9-0.4,1.4C56.1,37.7,56,37.9,56,38c-0.1,0.3-0.2,0.7-0.4,1
	c-0.1,0.2-0.1,0.4-0.2,0.5c-0.1,0.3-0.3,0.7-0.5,1c-0.1,0.1-0.1,0.3-0.2,0.4c-0.2,0.5-0.5,0.9-0.8,1.4c-0.3,0.5-0.5,0.9-0.8,1.3
	C53,43.9,53,44,52.9,44.1c-0.2,0.3-0.5,0.7-0.7,1c-0.1,0.1-0.2,0.2-0.2,0.3c-0.7,0.9-1.4,1.7-2.2,2.5c0,0,0,0,0,0l-9-6.1
	c0,0,0.1,0,0.1-0.1c0.8-0.6,1.5-1.3,2.2-2.1c0,0,0,0,0,0c0.3-0.4,0.6-0.8,0.9-1.2c0.3-0.4,0.6-0.9,0.9-1.3c0.3-0.5,0.5-0.9,0.7-1.4
	c0.6-1.4,1.1-2.9,1.3-4.4c0,0,0-0.1,0-0.1l9.8,4.7C56.6,36,56.6,36.1,56.6,36.1z"/>
<path fill="#D6F7CB" d="M23.6,54.9c-1-0.3-2.1-0.6-3.1-1.1c-0.1-0.1-0.3-0.1-0.4-0.2c-0.4-0.2-0.7-0.3-1.1-0.5
	c-0.1-0.1-0.3-0.1-0.4-0.2c-0.5-0.2-0.9-0.5-1.4-0.7c-0.5-0.3-0.9-0.5-1.3-0.8c-0.1-0.1-0.3-0.2-0.4-0.3c-0.3-0.2-0.6-0.5-1-0.7
	c-0.1-0.1-0.2-0.2-0.3-0.3c-0.9-0.7-1.7-1.4-2.4-2.1c0,0,0,0,0,0l6.1-9c0,0,0.1,0.1,0.1,0.1c0.9,1.2,2,2.2,3.3,3.1
	c0.4,0.3,0.9,0.6,1.3,0.9c0.4,0.2,0.8,0.5,1.3,0.7c0.1,0,0.2,0.1,0.3,0.1c0.9,0.4,1.8,0.7,2.8,1c0,0,0,0,0.1,0
	c0.5,0.1,1,0.2,1.5,0.3L23.6,54.9C23.6,54.9,23.6,54.9,23.6,54.9z"/>
<path fill="#D6F7CB" d="M14.6,26.6c0,0,0,0.1,0,0.1l-9.8-4.7c0,0,0,0,0,0c0.3-1,0.6-2.1,1.1-3.1c0.1-0.1,0.1-0.3,0.2-0.4
	c0.2-0.4,0.3-0.7,0.5-1.1c0.1-0.1,0.1-0.3,0.2-0.4c0.2-0.5,0.5-0.9,0.7-1.4c0.3-0.5,0.6-1,1-1.5c0.1-0.1,0.2-0.2,0.3-0.4
	c0.3-0.4,0.5-0.7,0.8-1.1c0.1-0.1,0.2-0.2,0.3-0.4c0.3-0.3,0.5-0.7,0.8-1c0.1-0.1,0.2-0.2,0.3-0.3c0.2-0.3,0.5-0.5,0.8-0.8l9,6.1
	c-0.2,0.2-0.4,0.3-0.6,0.5c-0.2,0.1-0.3,0.3-0.5,0.4c-0.2,0.2-0.4,0.4-0.6,0.6c-0.2,0.2-0.4,0.4-0.6,0.6c-0.2,0.2-0.3,0.4-0.5,0.7
	c-0.2,0.2-0.3,0.4-0.5,0.6c-0.3,0.4-0.6,0.9-0.9,1.4c-0.3,0.5-0.5,0.9-0.7,1.4C15.2,23.6,14.8,25.1,14.6,26.6z"/>
<path fill="#D6F7CB" d="M33,12.8L37.7,3c0.4,0.1,0.8,0.2,1.2,0.4c0.1,0,0.2,0.1,0.4,0.1c0.4,0.1,0.8,0.3,1.2,0.4
	c0.2,0.1,0.3,0.1,0.5,0.2c0.4,0.2,0.7,0.3,1.1,0.5c0.2,0.1,0.3,0.1,0.5,0.2c0.5,0.3,1.1,0.5,1.6,0.8C44.6,6,45,6.2,45.5,6.5
	c0.1,0.1,0.3,0.2,0.4,0.3c0.3,0.2,0.6,0.4,0.9,0.6c0.2,0.1,0.3,0.2,0.5,0.4C47.5,8,47.8,8.2,48,8.5c0.1,0.1,0.3,0.2,0.4,0.4
	c0.4,0.3,0.7,0.6,1.1,1c0,0,0.1,0.1,0.1,0.1l-6.1,9c0,0,0-0.1-0.1-0.1c-0.6-0.8-1.3-1.5-2.1-2.2c0,0,0,0,0,0
	c-0.4-0.3-0.8-0.6-1.2-0.9c-0.4-0.3-0.9-0.6-1.3-0.9c-0.5-0.3-0.9-0.5-1.4-0.7c-0.2-0.1-0.4-0.2-0.6-0.3c-0.3-0.1-0.6-0.2-0.8-0.3
	c-0.2-0.1-0.5-0.1-0.7-0.2c-0.3-0.1-0.6-0.2-0.9-0.2c-0.2,0-0.4-0.1-0.6-0.1C33.5,12.9,33.3,12.8,33,12.8z"/>
<path fill="#FFFFFF" d="M30.7,2.1c1.6,0,3.3,0.2,4.9,0.5l-4.9,10.1c-2.9,0-5.7,0.8-8.2,2.2l-9.3-6.3C18.1,4.4,24.4,2.1,30.7,2.1z"/>
<path fill="#FFFFFF" d="M4.3,24l10.1,4.9c0,1.4,0.2,2.8,0.5,4.2c0.4,1.4,0.9,2.7,1.7,4l-6.3,9.3c-2.6-3-4.5-6.6-5.5-10.5
	C3.7,32,3.6,27.9,4.3,24z"/>
<path fill="#FFFFFF" d="M25.8,55.4l4.9-10.1c0,0,0,0,0,0c1.4,0,2.8-0.2,4.3-0.6c1.4-0.4,2.7-0.9,4-1.7l9.3,6.3
	c-3,2.6-6.6,4.5-10.5,5.5C33.7,56,29.7,56.1,25.8,55.4z"/>
</svg>
