<?xml version="1.0" encoding="iso-8859-1"?>
<!-- Generator: Adobe Illustrator 18.0.0, SVG Export Plug-In . SVG Version: 6.00 Build 0)  -->
<!DOCTYPE svg PUBLIC "-//W3C//DTD SVG 1.1//EN" "http://www.w3.org/Graphics/SVG/1.1/DTD/svg11.dtd">
<svg version="1.1" id="&#x421;&#x43B;&#x43E;&#x439;_1"
	 xmlns="http://www.w3.org/2000/svg" xmlns:xlink="http://www.w3.org/1999/xlink" x="0px" y="0px" viewBox="0 0 50 50"
	 style="enable-background:new 0 0 50 50;" xml:space="preserve">
<g>
	<path style="fill:#01061C;" d="M39.423,24.007c0.632,0,1.232,0.004,1.833-0.006c0.062-0.001,0.143-0.069,0.179-0.126
		c0.152-0.243,0.377-0.389,0.671-0.368c0.377,0.026,0.756,0.076,1.123,0.155c0.93,0.201,1.861,0.38,2.821,0.227
		c0.577-0.092,1.148-0.21,1.723-0.312c0.194-0.034,0.391-0.066,0.587-0.074c0.742-0.029,1.094,0.206,1.186,0.892
		c0.058,0.436,0.037,0.893-0.034,1.329c-0.087,0.529-0.456,0.791-1.03,0.768c-0.453-0.018-0.913-0.069-1.352-0.17
		c-1.413-0.328-2.806-0.235-4.197,0.101c-0.161,0.039-0.329,0.061-0.495,0.072c-0.634,0.043-0.859-0.089-1.112-0.638
		c-0.619,0-1.241,0-1.887,0c-0.224,3.003-1.368,5.66-3.455,7.993c0.425,0.39,0.846,0.779,1.273,1.161
		c0.037,0.034,0.126,0.048,0.178,0.033c0.366-0.106,0.677-0.011,0.897,0.26c0.298,0.366,0.577,0.748,0.832,1.14
		c0.586,0.899,1.381,1.59,2.336,2.141c0.431,0.249,0.856,0.519,1.239,0.828c0.449,0.362,0.478,0.749,0.166,1.216
		c-0.277,0.416-0.646,0.754-1.084,1.019c-0.513,0.31-0.964,0.283-1.372-0.14c-0.348-0.362-0.652-0.766-0.936-1.175
		c-0.64-0.922-1.451-1.668-2.459-2.238c-0.343-0.194-0.668-0.421-0.977-0.66c-0.327-0.253-0.415-0.58-0.235-0.957
		c0.024-0.051,0.022-0.148-0.014-0.183c-0.395-0.383-0.798-0.758-1.184-1.12c-0.553,0.388-1.071,0.784-1.623,1.133
		c-1.933,1.225-4.066,1.965-6.388,2.231c-0.06,0.007-0.12,0.019-0.18,0.026c-0.388,0.044-0.388,0.043-0.388,0.419
		c0,0.362,0.005,0.723-0.003,1.085c-0.003,0.128,0.031,0.205,0.164,0.264c0.278,0.124,0.405,0.361,0.376,0.629
		c-0.043,0.407-0.113,0.814-0.212,1.212c-0.201,0.807-0.349,1.615-0.197,2.443c0.111,0.607,0.25,1.209,0.373,1.815
		c0.024,0.118,0.038,0.239,0.041,0.359c0.02,0.659-0.248,0.975-0.942,1.086c-0.492,0.078-0.986,0.07-1.474-0.038
		c-0.517-0.115-0.818-0.432-0.792-0.927c0.024-0.464,0.085-0.934,0.198-1.386c0.303-1.202,0.259-2.389-0.072-3.576
		c-0.053-0.191-0.095-0.388-0.116-0.585c-0.069-0.656,0.012-0.902,0.67-1.163c0-0.514,0-1.031,0-1.573
		c-3.281-0.186-6.181-1.265-8.735-3.255c-0.374,0.356-0.746,0.707-1.111,1.065c-0.03,0.029-0.031,0.105-0.015,0.15
		c0.118,0.342-0.002,0.623-0.281,0.837c-0.257,0.197-0.528,0.389-0.821,0.535c-1.327,0.663-2.259,1.674-3.016,2.859
		c-0.203,0.317-0.478,0.604-0.764,0.863c-0.265,0.238-0.616,0.24-0.938,0.085c-0.589-0.285-1.046-0.708-1.358-1.252
		c-0.229-0.399-0.182-0.759,0.178-1.065c0.357-0.304,0.744-0.589,1.155-0.826c1.16-0.669,2.059-1.558,2.746-2.649
		c0.156-0.248,0.356-0.478,0.563-0.692c0.267-0.276,0.602-0.334,0.978-0.192c0.062,0.023,0.173,0.028,0.213-0.007
		c0.357-0.317,0.703-0.646,1.069-0.986c-2.22-2.363-3.451-5.103-3.685-8.246c-0.515,0-1.022-0.003-1.529,0.005
		c-0.046,0.001-0.109,0.066-0.134,0.115c-0.193,0.38-0.531,0.557-0.96,0.52c-0.574-0.049-1.148-0.122-1.712-0.233
		c-1.07-0.21-2.129-0.195-3.19,0.038c-0.348,0.076-0.699,0.146-1.053,0.187c-0.768,0.09-1.14-0.145-1.227-0.858
		c-0.058-0.472-0.031-0.962,0.032-1.436c0.066-0.495,0.385-0.714,0.923-0.683c0.338,0.019,0.681,0.074,1.007,0.161
		c1.363,0.365,2.716,0.33,4.079-0.002c0.394-0.096,0.808-0.132,1.216-0.16c0.357-0.025,0.653,0.11,0.841,0.413
		c0.023,0.038,0.074,0.087,0.112,0.087c0.531,0.006,1.062,0.004,1.608,0.004c0.282-3.081,1.512-5.763,3.716-8.093
		c-0.388-0.353-0.765-0.7-1.149-1.041c-0.03-0.026-0.113-0.023-0.159-0.005c-0.402,0.157-0.767,0.069-1.044-0.21
		c-0.308-0.31-0.599-0.645-0.836-1.004c-0.718-1.085-1.652-1.952-2.835-2.595c-0.28-0.152-0.545-0.34-0.785-0.544
		C6.813,10.211,6.77,9.862,7.026,9.466C7.357,8.953,7.803,8.54,8.352,8.231c0.392-0.221,0.764-0.178,1.071,0.14
		C9.626,8.58,9.815,8.81,9.958,9.057c0.724,1.257,1.79,2.186,3.105,2.892c0.3,0.161,0.575,0.372,0.832,0.59
		c0.267,0.226,0.4,0.513,0.293,0.864c-0.015,0.048,0.012,0.129,0.051,0.166c0.374,0.361,0.755,0.717,1.145,1.084
		c2.531-1.96,5.419-3.033,8.702-3.22c0-0.539,0.004-1.063-0.006-1.586c-0.001-0.049-0.078-0.116-0.136-0.14
		c-0.391-0.162-0.573-0.459-0.546-0.832c0.036-0.486,0.097-0.975,0.21-1.449c0.267-1.116,0.257-2.219-0.035-3.328
		c-0.087-0.329-0.154-0.667-0.181-1.004c-0.041-0.524,0.191-0.811,0.728-0.927c0.609-0.132,1.224-0.13,1.832,0.011
		c0.459,0.106,0.684,0.361,0.649,0.799c-0.032,0.393-0.107,0.788-0.218,1.169c-0.334,1.153-0.299,2.295,0.011,3.446
		c0.11,0.41,0.169,0.835,0.21,1.257c0.034,0.343-0.093,0.642-0.439,0.829c-0.048,0.026-0.096,0.098-0.096,0.149
		c-0.007,0.538-0.004,1.076-0.004,1.636c3.235,0.273,6.06,1.417,8.537,3.427c0.421-0.404,0.845-0.807,1.261-1.217
		c0.031-0.03,0.019-0.118-0.001-0.169c-0.14-0.35-0.081-0.682,0.206-0.921c0.401-0.334,0.823-0.655,1.278-0.92
		c1.09-0.636,1.932-1.478,2.592-2.498c0.183-0.283,0.405-0.549,0.645-0.792c0.294-0.297,0.619-0.348,0.992-0.161
		c0.638,0.319,1.137,0.783,1.475,1.381c0.215,0.38,0.073,0.759-0.389,1.057c-0.475,0.307-0.967,0.59-1.451,0.884
		c-0.871,0.528-1.469,1.282-2.013,2.085c-0.199,0.293-0.407,0.582-0.637,0.855c-0.284,0.339-0.626,0.586-1.138,0.451
		c-0.044-0.012-0.118,0.021-0.155,0.055c-0.435,0.396-0.865,0.796-1.309,1.206c1.003,1.117,1.81,2.324,2.398,3.658
		C38.943,21.171,39.29,22.55,39.423,24.007z M15.758,32.363c2.081-1.938,4.145-3.86,6.203-5.776
		c-0.128-0.241-0.255-0.48-0.384-0.725c-2.9,0-5.804,0-8.732,0C13.095,28.325,14.007,30.506,15.758,32.363z M21.458,24.004
		c0.068-0.187,0.1-0.371,0.195-0.518c0.148-0.227,0.055-0.358-0.12-0.52c-1.721-1.594-3.435-3.194-5.151-4.792
		c-0.191-0.178-0.387-0.351-0.581-0.528c-1.62,1.719-3.16,5.118-2.883,6.358C15.76,24.004,18.604,24.004,21.458,24.004z
		 M17.19,33.65c1.551,1.367,5.321,2.742,6.895,2.527c0-0.073,0-0.15,0-0.226c0-2.517,0-5.033,0-7.55
		c0-0.366-0.004-0.357-0.363-0.503c-0.169-0.069-0.275-0.056-0.412,0.073c-1.425,1.339-2.857,2.671-4.291,4.002
		C18.417,32.532,17.807,33.084,17.19,33.65z M32.806,33.441c-0.055-0.035-0.092-0.05-0.119-0.075
		c-1.274-1.187-2.548-2.375-3.822-3.563c-0.683-0.636-1.366-1.273-2.054-1.905c-0.054-0.049-0.158-0.099-0.219-0.084
		c-0.18,0.046-0.349,0.126-0.515,0.189c0,2.725,0,5.437,0,8.171C28.627,35.924,30.833,35.001,32.806,33.441z M24.074,13.851
		c-2.571,0.166-4.831,1.011-6.827,2.49c1.971,1.836,3.923,3.654,5.878,5.475c0.234-0.095,0.477-0.216,0.736-0.292
		c0.178-0.052,0.229-0.122,0.229-0.293c-0.007-2.382-0.004-4.765-0.005-7.147C24.085,14.015,24.079,13.946,24.074,13.851z
		 M28.156,26.508c2.005,1.868,4.006,3.733,6.007,5.597c1.428-1.483,2.806-4.724,2.649-6.253c-0.079,0-0.16,0-0.242,0
		c-2.548,0-5.096,0.005-7.644-0.007c-0.319-0.002-0.534,0.042-0.608,0.365C28.294,26.316,28.211,26.411,28.156,26.508z
		 M32.738,16.594c-1.503-1.372-5.07-2.804-6.661-2.683c-0.004,0.047-0.012,0.095-0.012,0.143c-0.001,2.013,0,4.027,0,6.04
		c0,0.404-0.005,0.808,0.004,1.211c0.002,0.068,0.05,0.169,0.108,0.196c0.284,0.131,0.579,0.243,0.884,0.367
		C28.94,20.122,30.834,18.362,32.738,16.594z M36.825,24.008c-0.25-2.306-1.141-4.318-2.733-6.142
		c-0.071,0.093-0.114,0.17-0.177,0.229c-1.758,1.64-3.515,3.281-5.283,4.913c-0.213,0.196-0.331,0.366-0.149,0.626
		c0.032,0.046,0.053,0.105,0.058,0.16c0.018,0.179,0.118,0.219,0.305,0.218c2.306-0.007,4.611-0.004,6.917-0.004
		C36.103,24.008,36.444,24.008,36.825,24.008z M25.037,26.327c0.954,0,1.712-0.707,1.709-1.594c-0.004-0.887-0.76-1.593-1.711-1.599
		c-0.938-0.005-1.706,0.714-1.71,1.6C23.32,25.616,24.085,26.327,25.037,26.327z M12.16,25.2c0.006-0.264-0.23-0.492-0.511-0.492
		c-0.279,0-0.529,0.228-0.528,0.483c0.001,0.243,0.242,0.474,0.506,0.485C11.903,25.687,12.154,25.463,12.16,25.2z M15.577,34.37
		c0.267-0.003,0.501-0.229,0.498-0.481c-0.003-0.267-0.24-0.482-0.526-0.477c-0.291,0.005-0.513,0.221-0.505,0.491
		C15.052,34.172,15.282,34.374,15.577,34.37z M14.931,16.004c-0.003,0.278,0.218,0.487,0.515,0.487c0.278,0,0.507-0.211,0.513-0.472
		c0.005-0.262-0.237-0.491-0.52-0.493C15.167,15.525,14.934,15.744,14.931,16.004z M25.463,37.625
		c0.002-0.262-0.218-0.477-0.496-0.484c-0.28-0.008-0.529,0.22-0.528,0.483c0,0.256,0.231,0.478,0.503,0.483
		C25.231,38.113,25.46,37.901,25.463,37.625z M34.465,16.753c0.295,0.013,0.532-0.19,0.542-0.463c0.01-0.26-0.211-0.481-0.489-0.491
		c-0.29-0.01-0.523,0.181-0.539,0.44C33.962,16.515,34.175,16.741,34.465,16.753z M38.807,24.919
		c-0.002-0.273-0.235-0.483-0.526-0.477c-0.274,0.006-0.501,0.227-0.497,0.486c0.004,0.278,0.228,0.478,0.528,0.472
		C38.596,25.393,38.809,25.186,38.807,24.919z M34.712,34.12c0.295,0.002,0.52-0.208,0.519-0.482
		c-0.002-0.263-0.222-0.47-0.505-0.473c-0.293-0.004-0.521,0.208-0.52,0.482C34.207,33.908,34.432,34.117,34.712,34.12z
		 M25.091,12.013c-0.295-0.004-0.522,0.206-0.521,0.48c0.001,0.267,0.216,0.471,0.502,0.475c0.289,0.004,0.526-0.212,0.524-0.479
		C25.594,12.226,25.372,12.016,25.091,12.013z"/>
</g>
</svg>
